<svg xmlns="http://www.w3.org/2000/svg" viewBox="0 0 1100 560" width="1100" height="560">
  <rect x="0" y="0" width="1100" height="560" fill="#F5F1EA"/>
  <style>text { font-family: -apple-system,BlinkMacSystemFont,Inter,'Segoe UI',sans-serif; }</style>
  <text x="90" y="36" font-size="22" font-weight="600" fill="#2A1F18">v1.0.6 fresh bench: dtc-mcp vs Klaviyo official MCP</text>
  <text x="90" y="60" font-size="13" fill="#7A6B5F">fresh 16-cell run · mean of 2 trials · Klaviyo live data</text>
  <line x1="90" x2="1050" y1="450" y2="450" stroke="#E5DDD0" stroke-width="1"/>
  <text x="78" y="454" font-size="11" fill="#7A6B5F" text-anchor="end">0</text>
  <line x1="90" x2="1050" y1="378" y2="378" stroke="#E5DDD0" stroke-width="1"/>
  <text x="78" y="382" font-size="11" fill="#7A6B5F" text-anchor="end">20k</text>
  <line x1="90" x2="1050" y1="306" y2="306" stroke="#E5DDD0" stroke-width="1"/>
  <text x="78" y="310" font-size="11" fill="#7A6B5F" text-anchor="end">40k</text>
  <line x1="90" x2="1050" y1="234" y2="234" stroke="#E5DDD0" stroke-width="1"/>
  <text x="78" y="238" font-size="11" fill="#7A6B5F" text-anchor="end">60k</text>
  <line x1="90" x2="1050" y1="162" y2="162" stroke="#E5DDD0" stroke-width="1"/>
  <text x="78" y="166" font-size="11" fill="#7A6B5F" text-anchor="end">80k</text>
  <line x1="90" x2="1050" y1="90" y2="90" stroke="#E5DDD0" stroke-width="1"/>
  <text x="78" y="94" font-size="11" fill="#7A6B5F" text-anchor="end">100k</text>
  <text x="30" y="270" font-size="12" fill="#7A6B5F" text-anchor="middle" transform="rotate(-90, 30, 270)">tokens</text>
  <rect x="96" y="246.9204" width="111" height="203.0796" fill="#C9532E" rx="3"/>
  <text x="151.5" y="240.9204" font-size="11" fill="#2A1F18" text-anchor="middle" font-weight="500">56k</text>
  <rect x="213" y="270.738" width="111" height="179.262" fill="#5B7A99" rx="3"/>
  <text x="268.5" y="264.738" font-size="11" fill="#2A1F18" text-anchor="middle" font-weight="500">50k</text>
  <text x="210" y="478" font-size="14" fill="#2A1F18" text-anchor="middle">task 02</text>
  <text x="210" y="496" font-size="12" fill="#7A6B5F" text-anchor="middle">(1 turn · baseline)</text>
  <rect x="336" y="286.74" width="111" height="163.26" fill="#C9532E" rx="3"/>
  <text x="391.5" y="280.74" font-size="11" fill="#2A1F18" text-anchor="middle" font-weight="500">45k</text>
  <rect x="453" y="269.7552" width="111" height="180.2448" fill="#5B7A99" rx="3"/>
  <text x="508.5" y="263.7552" font-size="11" fill="#2A1F18" text-anchor="middle" font-weight="500">50k</text>
  <text x="450" y="478" font-size="14" fill="#2A1F18" text-anchor="middle">task 05</text>
  <text x="450" y="496" font-size="12" fill="#7A6B5F" text-anchor="middle">(2 turn · short)</text>
  <rect x="576" y="312.30719999999997" width="111" height="137.6928" fill="#C9532E" rx="3"/>
  <text x="631.5" y="306.30719999999997" font-size="11" fill="#2A1F18" text-anchor="middle" font-weight="500">38k</text>
  <rect x="693" y="224.5536" width="111" height="225.4464" fill="#5B7A99" rx="3"/>
  <text x="748.5" y="218.5536" font-size="11" fill="#2A1F18" text-anchor="middle" font-weight="500">63k</text>
  <text x="690" y="478" font-size="14" fill="#2A1F18" text-anchor="middle">task 06</text>
  <text x="690" y="496" font-size="12" fill="#7A6B5F" text-anchor="middle">(5 turn · medium)</text>
  <rect x="816" y="240.29999999999998" width="111" height="209.70000000000002" fill="#C9532E" rx="3"/>
  <text x="871.5" y="234.29999999999998" font-size="11" fill="#2A1F18" text-anchor="middle" font-weight="500">58k</text>
  <rect x="933" y="163.28879999999998" width="111" height="286.7112" fill="#5B7A99" rx="3"/>
  <text x="988.5" y="157.28879999999998" font-size="11" fill="#2A1F18" text-anchor="middle" font-weight="500">80k</text>
  <text x="930" y="478" font-size="14" fill="#2A1F18" text-anchor="middle">task 09</text>
  <text x="930" y="496" font-size="12" fill="#7A6B5F" text-anchor="middle">(10 turn · long)</text>
  <line x1="90" x2="1050" y1="450" y2="450" stroke="#2A1F18" stroke-width="1.5"/>
  <rect x="90" y="527" width="14" height="14" fill="#C9532E" rx="2"/>
  <text x="112" y="538" font-size="13" fill="#2A1F18">dtc-mcp v1.0.6</text>
  <rect x="257" y="527" width="14" height="14" fill="#5B7A99" rx="2"/>
  <text x="279" y="538" font-size="13" fill="#2A1F18">klaviyo official MCP</text>
</svg>